<svg width="34" height="32" viewBox="0 0 34 32" fill="none" xmlns="http://www.w3.org/2000/svg">
<path d="M34 25.6269C34 26.8515 33.3112 29.2072 31.7647 30.5015C31.4551 30.7378 31.1454 30.6037 31.2811 30.2604C31.731 29.1703 32.7629 26.6469 32.2793 26.0674C31.9374 25.6269 30.5264 25.659 29.3229 25.7611C28.7734 25.83 28.2911 25.8633 27.9167 25.9368C27.57 25.9653 27.4992 25.6637 27.8459 25.4275C28.2911 25.1163 28.7734 24.8799 29.3265 24.7078C31.2811 24.1282 33.5408 24.4771 33.8643 24.8467C33.9269 24.9183 34 25.1163 34 25.6269ZM30.7328 27.806C30.2877 28.1456 29.8053 28.4555 29.3229 28.7298C25.7138 30.8768 21.0403 32 16.9813 32C10.4482 32 4.60369 29.6156 0.17026 25.6269C-0.210087 25.3206 0.104272 24.8752 0.549416 25.1163C5.32599 27.876 11.24 29.5456 17.3616 29.5456C21.2144 29.5456 25.367 28.8319 29.3229 27.2965C29.5989 27.1943 29.9085 27.0555 30.1797 26.9581C30.8035 26.6791 31.3519 27.3653 30.7328 27.806ZM20.2417 9.24631C20.2431 7.49258 20.3133 6.46115 19.7262 5.57585C19.2052 4.8476 18.3102 4.41089 17.0595 4.47931C15.7024 4.55357 14.2454 5.4341 13.8732 7.04765C13.8016 7.41594 13.5826 7.78007 13.1318 7.86067L8.99059 7.3395C8.69429 7.27002 8.24491 7.04765 8.39237 6.46115C9.28126 1.83037 13.2806 0.216802 17.0595 0H17.9484C20.0225 0 22.6879 0.586496 24.3941 2.12777C26.4626 4.03874 26.2421 6.60708 26.2421 9.39779V16.0049C26.2421 17.9868 27.0538 18.865 27.8711 19.8977C28.0916 20.266 28.1674 20.701 27.7953 20.9999C26.9779 21.7322 25.4248 23.0511 24.5359 23.7836C24.2397 24.0072 23.7056 24.0311 23.4996 23.86C22.1907 22.7733 21.8706 22.1714 21.0588 21.0692C19.649 22.5355 18.4637 23.3444 17.0539 23.7836C16.165 24.0072 15.2059 24.1477 14.0206 24.1477C10.4665 24.1477 7.65232 21.9547 7.65232 17.6171C7.65232 14.1704 9.50595 11.8255 12.2429 10.7167C14.9798 9.60784 18.9587 9.25257 20.2417 9.24631ZM19.43 17.9812C20.3133 16.5149 20.2417 15.3121 20.2417 12.6221C19.1336 12.6221 18.0202 12.6985 17.0595 12.921C15.2831 13.431 13.8732 14.5386 13.8732 16.8846C13.8732 18.7191 14.838 19.9672 16.467 19.9672C16.6916 19.9672 16.8883 19.9394 17.0595 19.8921C18.1975 19.5778 18.909 19.0124 19.43 17.9812Z" fill="white"/>
</svg>
