<svg width="29" height="26" viewBox="0 0 29 26" fill="none" xmlns="http://www.w3.org/2000/svg">
<path d="M1.4502 1H7.8623C8.28253 2.26037 9.47435 3.16699 10.875 3.16699C12.2756 3.16699 13.4675 2.26038 13.8877 1H27.5498C27.8019 1 27.9999 1.20254 28 1.44434V8.49805C25.9287 8.95355 24.375 10.7931 24.375 13C24.375 15.2069 25.9288 17.0454 28 17.501V24.5557C27.9999 24.7974 27.8019 25 27.5498 25H13.8877C13.4675 23.7396 12.2756 22.833 10.875 22.833C9.47436 22.833 8.28252 23.7396 7.8623 25H1.4502C1.19814 25 1.00006 24.7974 1 24.5557V1.44434C1.00006 1.20255 1.19809 1 1.4502 1ZM10.875 14.167C9.12528 14.167 7.70038 15.5805 7.7002 17.333C7.7002 19.0855 9.12512 20.5 10.875 20.5C12.6249 20.5 14.0498 19.0855 14.0498 17.333C14.0496 15.5805 12.6247 14.167 10.875 14.167ZM10.875 5.5C9.12513 5.5 7.7002 6.91449 7.7002 8.66699C7.70038 10.4193 9.12522 11.833 10.875 11.833C12.6248 11.833 14.0496 10.4193 14.0498 8.66699C14.0498 6.91447 12.6248 5.50001 10.875 5.5Z" stroke="white" stroke-width="2"/>
</svg>
