<svg width="47" height="47" viewBox="0 0 47 47" fill="none" xmlns="http://www.w3.org/2000/svg">
<path d="M27.7547 1.58264C25.2785 -0.527554 21.6365 -0.527532 19.1605 1.58262L16.1836 4.11946C15.8299 4.42088 15.3901 4.60302 14.9269 4.63999L11.0281 4.95112C7.78512 5.20992 5.20992 7.78512 4.95113 11.0281L4.64002 14.9269C4.60307 15.3901 4.42086 15.83 4.11944 16.1837L1.5826 19.1605C-0.527552 21.6367 -0.527529 25.2785 1.58264 27.7545L4.11949 30.7315C4.42086 31.0853 4.60303 31.525 4.63999 31.9883L4.95117 35.8869C5.20996 39.1298 7.78519 41.7049 11.0282 41.9638L14.9269 42.2751C15.3901 42.312 15.8298 42.4942 16.1835 42.7956L19.1603 45.3323C21.6365 47.4424 25.2785 47.4426 27.7547 45.3323L30.7315 42.7956C31.0851 42.4942 31.5248 42.312 31.9881 42.2749L35.8869 41.9638C39.1298 41.7052 41.705 39.13 41.964 35.8869L42.2749 31.9883C42.3118 31.525 42.4942 31.0851 42.7954 30.7313L45.3324 27.7547C47.4427 25.2785 47.4427 21.6365 45.3324 19.1605L42.7954 16.1836C42.494 15.8299 42.312 15.3901 42.2752 14.9269L41.964 11.0281C41.7052 7.78516 39.1298 5.20987 35.8869 4.9511L31.9881 4.63997C31.5248 4.603 31.0851 4.42088 30.7315 4.11946L27.7547 1.58264ZM29.7031 14.0886L32.8261 17.2117L17.2108 32.827L14.0878 29.7038L29.7031 14.0886ZM19.5532 19.5538C18.2595 20.8475 16.1622 20.8475 14.8685 19.5538C13.5749 18.2604 13.5749 16.163 14.8685 14.8693C16.1622 13.5757 18.2595 13.5757 19.5532 14.8693C20.8468 16.163 20.8468 18.2604 19.5532 19.5538ZM27.3607 32.0461C26.0671 30.7525 26.0671 28.6552 27.3607 27.3616C28.6544 26.068 30.7516 26.068 32.0453 27.3616C33.3389 28.6552 33.3389 30.7525 32.0453 32.0461C30.7516 33.3398 28.6544 33.3398 27.3607 32.0461Z" fill="white"/>
</svg>
