<svg width="23" height="23" viewBox="0 0 23 23" fill="none" xmlns="http://www.w3.org/2000/svg">
<path d="M16.4609 4.44434L16.2939 4.41602H16.292C16.2913 4.4159 16.2902 4.41522 16.2891 4.41504C16.2864 4.4146 16.2822 4.41486 16.2773 4.41406C16.2673 4.4124 16.2523 4.40928 16.2334 4.40625C16.1951 4.40013 16.139 4.39125 16.0684 4.38086C15.9268 4.36002 15.7254 4.33241 15.4854 4.30469C15.0057 4.2493 14.3673 4.19336 13.7412 4.19336C12.4159 4.19341 11.2976 4.59619 10.5107 5.38379C9.72377 6.17163 9.29102 7.32176 9.29102 8.77148V11.0488H6.43457V14.7031H9.29102V22.1221C4.1236 21.1972 0.201172 16.6834 0.201172 11.25C0.201177 5.14775 5.14773 0.20119 11.25 0.201172C17.3522 0.201172 22.2988 5.14774 22.2988 11.25C22.2988 16.6834 18.3764 21.1972 13.209 22.1221V14.7031H15.8018L15.8281 14.5322L16.3262 11.2803L16.3623 11.0488H13.209V9.13965C13.209 8.72402 13.3112 8.33788 13.5527 8.05859C13.7895 7.78499 14.1862 7.58405 14.8408 7.58398H16.4609V4.44434Z" stroke="white" stroke-width="1.5"/>
</svg>
