<svg width="23" height="23" viewBox="0 0 23 23" fill="none" xmlns="http://www.w3.org/2000/svg">
<path d="M12.9053 0.201172C13.5382 0.202218 14.0144 0.204018 14.4014 0.208008L15.3613 0.226562L15.5791 0.233398C15.83 0.24232 16.0781 0.253525 16.3779 0.267578C17.5559 0.322022 18.3506 0.507798 19.0449 0.777344H19.0459C19.673 1.01918 20.2123 1.33373 20.7422 1.81348L20.9688 2.0293C21.5722 2.63369 21.9442 3.23779 22.2217 3.95312C22.4567 4.55996 22.6278 5.2452 22.7041 6.19629L22.7314 6.62109L22.7637 7.41992L22.7715 7.6377C22.7796 7.91326 22.7848 8.21086 22.7891 8.59766L22.7969 10.0938L22.7979 10.9316C22.798 11.0339 22.7988 11.1399 22.7988 11.249L22.7979 11.5664V12.4053L22.79 13.9014L22.7725 14.8613L22.7656 15.0791C22.7568 15.3301 22.7455 15.5782 22.7314 15.8779C22.677 17.056 22.4904 17.8512 22.2217 18.5459C21.9453 19.2625 21.5723 19.8643 20.9688 20.4688C20.4401 20.9966 19.9111 21.3471 19.3086 21.6123L19.0449 21.7217C18.4373 21.9568 17.7526 22.1278 16.8018 22.2041L16.3779 22.2314L15.5791 22.2637L15.3613 22.2715C15.0857 22.2797 14.7881 22.2848 14.4014 22.2891L12.9053 22.2979H10.5938C9.32849 22.2958 8.68879 22.2889 8.1377 22.2725L7.91992 22.2656L7.12109 22.2314L6.69629 22.2041C5.74584 22.1283 5.06177 21.9569 4.45312 21.7217V21.7207L4.18945 21.6123C3.67233 21.3855 3.21037 21.0956 2.75586 20.6846L2.5293 20.4688C1.92522 19.8647 1.55483 19.2595 1.27734 18.5449C1.04148 17.9373 0.870073 17.253 0.793945 16.3018L0.767578 15.8779L0.734375 15.0791L0.727539 14.8613C0.711173 14.3101 0.703601 13.6707 0.701172 12.4053V10.0938C0.703264 8.82779 0.71015 8.188 0.726562 7.63672L0.725586 7.63574L0.733398 7.41992C0.742319 7.16895 0.753525 6.9209 0.767578 6.62109C0.815203 5.58934 0.962792 4.85205 1.17969 4.21875L1.27734 3.95312C1.55376 3.23715 1.92491 2.63369 2.5293 2.0293C3.05793 1.50066 3.58639 1.1508 4.18945 0.885742L4.45312 0.777344C5.14735 0.507821 5.94107 0.322012 7.12012 0.266602C7.42017 0.253245 7.66872 0.243169 7.91992 0.234375L7.91895 0.233398L8.13672 0.226562C8.41253 0.218368 8.71046 0.213212 9.09766 0.208984L10.5938 0.201172H12.9053ZM11.749 5.42285C8.52988 5.42297 5.92294 8.03279 5.92285 11.249C5.92285 14.4682 8.53269 17.0751 11.749 17.0752C14.9683 17.0752 17.5752 14.4655 17.5752 11.249C17.5751 8.02986 14.9653 5.42285 11.749 5.42285ZM11.749 8.0752C13.5021 8.0752 14.9237 9.4956 14.9238 11.249C14.9238 13.0021 13.5025 14.4229 11.749 14.4229C9.99603 14.4227 8.5752 13.0026 8.5752 11.249C8.57528 9.49609 9.99557 8.07532 11.749 8.0752ZM17.6553 3.73535C16.7692 3.73547 16.0489 4.45546 16.0488 5.3418C16.0488 6.22798 16.768 6.9491 17.6553 6.94922C18.5415 6.94922 19.2627 6.22922 19.2627 5.3418C19.2626 4.51095 18.6281 3.82573 17.8193 3.74414L17.6553 3.73535Z" stroke="white" stroke-width="1"/>
</svg>
