<svg width="21" height="21" viewBox="0 0 21 21" fill="none" xmlns="http://www.w3.org/2000/svg">
<path d="M2.24414 0.326172H19.5L19.6328 0.332031C20.2898 0.396898 20.7988 0.937681 20.7988 1.58398V18.916C20.7988 19.6059 20.2199 20.1737 19.5 20.1738H2.24414C1.52453 20.1738 0.951172 19.607 0.951172 18.916V1.58398C0.951172 0.893653 1.52461 0.326246 2.24414 0.326172ZM3.54883 17.582H6.95801V7.51758H3.54883V17.582ZM14.4023 7.27441C13.1748 7.27452 12.2622 7.81203 11.7217 8.44629V7.51758H8.43945V17.582H11.8398V12.5996C11.8399 11.9732 11.9004 11.3986 12.1289 10.9844C12.2406 10.782 12.3917 10.6193 12.5967 10.5059C12.8028 10.3918 13.0758 10.3213 13.4404 10.3213C13.7933 10.3213 14.0415 10.4029 14.2197 10.5273C14.3984 10.6521 14.5248 10.8313 14.6133 11.0547C14.7948 11.5131 14.8027 12.1136 14.8027 12.6826V17.582H18.2031V17.3818L18.2041 12.0771C18.2041 10.7714 18.0646 9.57044 17.5117 8.69336C16.9453 7.79493 15.971 7.27441 14.4023 7.27441ZM5.25293 2.71289C4.17734 2.71298 3.31152 3.58354 3.31152 4.6543C3.31155 5.72563 4.17625 6.59757 5.25293 6.59766C6.32502 6.59766 7.19529 5.72613 7.19531 4.6543C7.19531 3.58316 6.32575 2.71289 5.25293 2.71289Z" stroke="white" stroke-width="1"/>
</svg>
