<svg width="28" height="36" viewBox="0 0 28 36" fill="none" xmlns="http://www.w3.org/2000/svg">
<path d="M14 2L25.8689 4.65597C26.5298 4.80387 27 5.39414 27 6.07588V20.602C27 23.52 25.5518 26.2449 23.1407 27.8636L14 34L4.85927 27.8636C2.44821 26.2449 1 23.52 1 20.602V6.07588C1 5.39414 1.47021 4.80387 2.1311 4.65597L14 2ZM14 10.7273C12.4045 10.7273 11.1111 12.0297 11.1111 13.6364C11.1111 14.7131 11.6921 15.6532 12.5554 16.1562L12.5556 22.3636H15.4444L15.446 16.1553C16.3087 15.6521 16.8889 14.7125 16.8889 13.6364C16.8889 12.0297 15.5955 10.7273 14 10.7273Z" stroke="white" stroke-width="2"/>
</svg>
