<svg width="51" height="51" viewBox="0 0 51 51" fill="none" xmlns="http://www.w3.org/2000/svg">
<path d="M25.5 51C11.4167 51 0 39.5831 0 25.5C0 11.4167 11.4167 0 25.5 0C39.5831 0 51 11.4167 51 25.5C51 39.5831 39.5831 51 25.5 51ZM22.95 33.15V38.25H28.05V33.15H22.95ZM28.05 28.9555C31.7365 27.8582 34.425 24.443 34.425 20.4C34.425 15.4708 30.4291 11.475 25.5 11.475C21.1701 11.475 17.5602 14.5584 16.7466 18.6493L21.7484 19.6497C22.0973 17.8965 23.6444 16.575 25.5 16.575C27.6124 16.575 29.325 18.2875 29.325 20.4C29.325 22.5124 27.6124 24.225 25.5 24.225C24.0916 24.225 22.95 25.3666 22.95 26.775V30.6H28.05V28.9555Z" fill="white"/>
</svg>
